Coordinates
version=1
nRows=13
nColumns=36
inDegrees=yes

Units are S.I. units (second, meters, Newtons, ...)
If the header above contains a line with 'inDegrees', this indicates whether rotational values are in degrees (yes) or radians (no).

endheader
time	pelvis_tilt	pelvis_list	pelvis_rotation	pelvis_tx	pelvis_ty	pelvis_tz	hip_flexion_r	hip_adduction_r	hip_rotation_r	knee_angle_r	knee_angle_r_beta	ankle_angle_r	subtalar_angle_r	mtp_angle_r	hip_flexion_l	hip_adduction_l	hip_rotation_l	knee_angle_l	knee_angle_l_beta	ankle_angle_l	subtalar_angle_l	mtp_angle_l	lumbar_extension	lumbar_bending	lumbar_rotation	arm_flex_r	arm_add_r	arm_rot_r	elbow_flex_r	pro_sup_r	arm_flex_l	arm_add_l	arm_rot_l	elbow_flex_l	pro_sup_l
      4.31666670	    -22.39130120	     -2.25016332	      6.37528699	      1.14067526	      0.75005766	     -0.67870646	     74.23230650	    -13.54966867	     -0.52935365	     85.35151923	      1.48966503	     38.43242628	      1.62161482	     -7.49999987	     72.51839491	    -11.15217644	     -2.83321967	     86.42835318	      1.50845933	     41.59439884	     -0.43100164	     -7.49999987	    -23.33860703	     -8.35677290	      4.44984996	     36.57534246	    -22.29232360	     13.29829100	    112.52857867	     89.63447141	     33.07232826	    -18.83391400	     25.28245062	    126.59188449	    100.17206237
      4.33333330	    -22.24224732	     -1.99980994	      6.33687807	      1.14009951	      0.75152929	     -0.67881600	     73.58448254	    -14.08673215	     -0.58446550	     84.56414105	      1.47592269	     38.08930219	      1.94648505	     -7.49999987	     71.63899095	    -10.79565380	     -3.16200301	     85.60806666	      1.49414263	     41.53466253	     -0.28064411	     -7.49999987	    -23.05292058	     -8.11761998	      4.04410846	     36.12133179	    -21.25562111	     13.65613959	    117.07307566	     86.45707142	     33.77393749	    -19.14947261	     26.64873838	    129.84046304	     95.88252810
      4.35000000	    -21.87469333	     -1.76128242	      6.20785810	      1.13651652	      0.75824694	     -0.68263610	     72.56791214	    -14.50345144	     -0.72886137	     83.43109640	      1.45614733	     37.58481199	      2.27376891	     -7.49999987	     70.45785323	    -10.43133755	     -3.43634423	     84.54014929	      1.47550396	     41.33337803	     -0.15759584	     -7.49999987	    -22.39715850	     -7.80403822	      3.88254161	     36.31470075	    -20.99793132	     13.92617702	    120.70792451	     87.06391810	     35.00716557	    -19.26786682	     27.32350278	    132.93592558	     96.34821699
      4.36666670	    -21.18651996	     -1.50564625	      5.99773440	      1.14237973	      0.77047141	     -0.68477776	     70.76587458	    -14.78679043	     -0.94726792	     81.73401657	      1.42652770	     36.94272044	      2.56876941	     -7.49999987	     68.46672828	    -10.08256187	     -3.74174181	     82.91342784	      1.44711231	     41.07583840	     -0.00877627	     -7.49999987	    -21.94943913	     -7.71674311	      4.63746375	     35.35130438	    -21.00411837	     13.68787121	    125.13584215	     90.48286232	     37.73834345	    -19.04184710	     30.02066228	    134.42340453	     97.94328219
      4.38333330	    -20.11877187	     -1.18031970	      5.76420245	      1.14331373	      0.78756038	     -0.68530655	     68.02925460	    -14.95265728	     -1.27136209	     79.24717399	      1.38312411	     35.97787921	      2.72430519	     -7.49999987	     65.53412760	     -9.69633489	     -4.13104882	     80.52458594	      1.40541915	     40.48851875	      0.11045947	     -7.49999987	    -21.83925404	     -7.55253399	      4.55257834	     35.88784785	    -20.52288521	     14.61487811	    128.03939931	     92.59996537	     39.32461136	    -19.17332626	     30.59074892	    136.23871364	     98.17868132
      4.40000000	    -19.27625777	     -0.87438427	      5.46892074	      1.14309484	      0.79859000	     -0.68421928	     65.37704491	    -14.97230258	     -1.58529585	     76.52586820	      1.33562836	     34.82210752	      2.73162854	     -7.49999987	     62.65595159	     -9.38786998	     -4.53806487	     77.82476603	      1.35829841	     39.75806682	      0.34167060	     -7.49999987	    -20.80753584	     -7.46609647	      4.42411091	     36.61046462	    -19.81758653	     14.93102416	    131.42366266	     92.75246739	     40.26341309	    -19.44035098	     30.17939022	    137.29553152	     98.06019590
      4.41666670	    -18.20073624	     -0.44402642	      5.18060669	      1.15038013	      0.81116697	     -0.68733511	     62.19427557	    -15.10984465	     -1.90613876	     73.48880033	      1.28262153	     33.81081060	      3.04511547	     -7.49999987	     59.11632881	     -8.92171799	     -5.03066597	     74.57830669	      1.30163700	     39.12163229	      0.85206583	     -7.49999987	    -20.17887266	     -7.55734896	      4.53138572	     35.74642227	    -19.29049693	     15.62560343	    134.11004892	     92.91617985	     40.49696840	    -19.63173906	     29.71128789	    138.46995359	     97.88462106
      4.43333330	    -18.14823242	     -0.17143277	      4.85967159	      1.14559288	      0.82089322	     -0.68933957	     60.32771751	    -15.22684731	     -2.32246209	     70.57611085	      1.23178551	     32.62445297	      3.57031807	     -7.49999987	     56.95024208	     -8.53956740	     -5.49837431	     71.52611329	      1.24836618	     38.25781496	      1.40588083	     -7.49999987	    -17.35399887	     -7.49880746	      4.86949024	     35.98848802	    -19.32557534	     16.09861645	    135.28734708	     93.00904887	     41.20839365	    -19.30326608	     29.33274555	    139.13373801	     97.82409837
      4.45000000	    -16.99061467	      0.42958266	      4.56363726	      1.14631086	      0.83452447	     -0.68733410	     57.32836650	    -15.40295484	     -2.53322580	     67.62479632	      1.18027535	     31.59772725	      3.68405029	     -7.49999987	     53.47541072	     -8.02812409	     -6.27132171	     68.17931905	      1.18995360	     37.43490246	      1.67319878	     -7.49999987	    -16.47610956	     -7.74449859	      5.18720310	     36.03925950	    -19.52277648	     16.61908497	    137.78635115	     92.98763081	     42.85054380	    -18.53594475	     28.12286485	    139.69352256	     97.41218926
      4.46666670	    -16.36812387	      0.91869631	      4.15620640	      1.15018610	      0.85565015	     -0.69355206	     54.61338133	    -15.64205298	     -3.12389245	     64.11205772	      1.11896650	     30.08455866	      4.10687911	     -7.49999987	     50.26782120	     -7.38820418	     -6.80819575	     64.25286009	      1.12142396	     36.14257961	      1.80560610	     -7.49999987	    -15.13861300	     -7.70205605	      4.95571088	     36.27645793	    -19.44454406	     17.75970836	    139.96527056	     89.57226732	     43.51664344	    -18.47514343	     27.67653181	    139.54067223	     94.29919113
      4.48333330	    -15.68811426	      1.40311451	      3.71395497	      1.15491391	      0.87599863	     -0.68889727	     51.50946580	    -15.74157383	     -3.86242698	     60.13800113	      1.04960613	     28.36152916	      4.63425124	     -7.49999987	     46.54432833	     -6.77286503	     -7.47757063	     59.63611966	      1.04084664	     34.62886924	      2.20914766	     -7.49999987	    -13.52222070	     -8.13155164	      5.19152498	     36.41202518	    -18.81362547	     18.10621503	    142.06557771	     88.99964774	     42.92640108	    -18.53869224	     27.52744683	    140.11695243	     93.59724565
      4.50000000	    -13.88477096	      1.86449885	      3.12656112	      1.16486681	      0.89450095	     -0.69664195	     46.75944231	    -15.72185678	     -4.62872089	     55.63639859	      0.97103834	     26.22185100	      4.64947720	     -7.49999987	     41.25548568	     -6.02190228	     -7.97148104	     54.56014456	      0.95225416	     32.76817246	      2.08250156	     -7.49999987	    -13.21601077	     -8.21910290	      5.39931889	     37.04103233	    -18.49100050	     18.66449058	    143.76530472	     89.48807584	     42.96683753	    -17.73261850	     28.20660145	    141.23196162	     94.10496183
      4.51666670	    -12.60513586	      2.17441100	      2.63266012	      1.16695934	      0.92228434	     -0.69620552	     42.07698680	    -15.58941456	     -5.82243362	     50.27436724	      0.87745324	     23.72093162	      5.01903785	     -7.49999987	     36.20229104	     -5.24581880	     -8.45252708	     48.67011165	      0.84945370	     30.37079721	      2.19744973	     -7.49999987	    -12.47248835	     -8.22459178	      5.10100560	     38.08316031	    -17.33544956	     20.68329738	    144.40649143	     92.38907025	     42.48251215	    -17.56952944	     29.05224576	    142.87542694	     97.13373704
